<svg width="1440" height="824" viewBox="0 0 1440 824" fill="none" xmlns="http://www.w3.org/2000/svg">
<g clip-path="url(#clip0_728_1662)">
<g clip-path="url(#clip1_728_1662)">
<rect width="1440" height="824" transform="matrix(-1 0 0 1 1440 0)" fill="#FFE297"/>
<g filter="url(#filter0_f_728_1662)">
<circle r="560.804" transform="matrix(-1 0 0 1 407.988 511.804)" fill="#F9A7FC"/>
</g>
<g filter="url(#filter1_f_728_1662)">
<ellipse rx="366" ry="377" transform="matrix(-1 0 0 1 565 55)" fill="#FD91E4"/>
</g>
<g filter="url(#filter2_f_728_1662)">
<circle r="273" transform="matrix(-1 0 0 1 86.9999 688.784)" fill="#0028F9"/>
</g>
<g filter="url(#filter3_f_728_1662)">
<path d="M1060.5 598.5C1060.5 832.945 1730.04 964 1531.5 964C1426.67 964 1140.99 1018.2 965 964C807.692 915.551 753 765.4 753 654.747C753 420.303 1003.96 206.747 1202.5 206.747C1401.04 206.747 1060.5 364.055 1060.5 598.5Z" fill="#FFE297"/>
</g>
</g>
</g>
<defs>
<filter id="filter0_f_728_1662" x="-772.816" y="-669" width="2361.61" height="2361.61" filterUnits="userSpaceOnUse" color-interpolation-filters="sRGB">
<feFlood flood-opacity="0" result="BackgroundImageFix"/>
<feBlend mode="normal" in="SourceGraphic" in2="BackgroundImageFix" result="shape"/>
<feGaussianBlur stdDeviation="310" result="effect1_foregroundBlur_728_1662"/>
</filter>
<filter id="filter1_f_728_1662" x="-421" y="-942" width="1972" height="1994" filterUnits="userSpaceOnUse" color-interpolation-filters="sRGB">
<feFlood flood-opacity="0" result="BackgroundImageFix"/>
<feBlend mode="normal" in="SourceGraphic" in2="BackgroundImageFix" result="shape"/>
<feGaussianBlur stdDeviation="310" result="effect1_foregroundBlur_728_1662"/>
</filter>
<filter id="filter2_f_728_1662" x="-806" y="-204.216" width="1786" height="1786" filterUnits="userSpaceOnUse" color-interpolation-filters="sRGB">
<feFlood flood-opacity="0" result="BackgroundImageFix"/>
<feBlend mode="normal" in="SourceGraphic" in2="BackgroundImageFix" result="shape"/>
<feGaussianBlur stdDeviation="310" result="effect1_foregroundBlur_728_1662"/>
</filter>
<filter id="filter3_f_728_1662" x="333" y="-213.253" width="1655.3" height="1621.34" filterUnits="userSpaceOnUse" color-interpolation-filters="sRGB">
<feFlood flood-opacity="0" result="BackgroundImageFix"/>
<feBlend mode="normal" in="SourceGraphic" in2="BackgroundImageFix" result="shape"/>
<feGaussianBlur stdDeviation="210" result="effect1_foregroundBlur_728_1662"/>
</filter>
<clipPath id="clip0_728_1662">
<rect width="1440" height="824" fill="white"/>
</clipPath>
<clipPath id="clip1_728_1662">
<rect width="1440" height="824" fill="white" transform="matrix(-1 0 0 1 1440 0)"/>
</clipPath>
</defs>
</svg>
